<?xml version="1.0" encoding="utf-8"?>
<!-- Generator: Adobe Illustrator 26.0.2, SVG Export Plug-In . SVG Version: 6.00 Build 0)  -->
<svg version="1.1" id="Calque_1" xmlns="http://www.w3.org/2000/svg" xmlns:xlink="http://www.w3.org/1999/xlink" x="0px" y="0px"
	 viewBox="0 0 276.97 299.53" style="enable-background:new 0 0 276.97 299.53;" xml:space="preserve">
<g>
	<path d="M66.17,135.88c0.86-0.42,1.62-0.67,2.25-1.11c10.22-7.09,20.42-14.21,30.63-21.32c4.68-3.26,9.42-6.43,14.04-9.77
		c3.32-2.4,5.18-5.7,5.42-9.88c0.56-10.1,1.15-20.19,1.76-30.28c0.7-11.57,3.02-22.81,7.27-33.61c1.29-3.28,2.76-6.55,5.82-8.66
		c4.37-3,10-1.71,13.06,2.82c2.93,4.34,4.31,9.28,5.89,14.17c2.41,7.45,3.67,15.1,4.16,22.9c0.6,9.72,1.29,19.44,1.84,29.16
		c0.21,3.76,0.2,7.59,2.84,10.58c1.56,1.75,3.47,3.24,5.4,4.6c10.39,7.31,20.83,14.55,31.25,21.81
		c13.02,9.06,26.04,18.12,39.06,27.18c7.62,5.3,15.28,10.54,22.82,15.94c2.32,1.66,4.9,3.25,5.61,6.4c0.37,1.63,0.72,3.2-0.17,4.83
		c-0.55,1-1.21,1.6-2.32,1.39c-3.2-0.61-6.44-1.13-9.58-1.97c-13.98-3.75-27.94-7.6-41.9-11.4c-12.66-3.45-25.32-6.89-37.98-10.34
		c-2.85-0.78-5.7-1.59-8.56-2.35c-3.39-0.9-5.69,0.64-5.85,4.16c-0.34,7.36-0.49,14.73-0.77,22.09
		c-0.45,11.66-0.88,23.32-1.45,34.98c-0.59,12.23-1.32,24.45-2.04,36.67c-0.08,1.39,0.34,2.37,1.43,3.21
		c7.87,6.09,15.72,12.21,23.58,18.32c0.16,0.13,0.4,0.21,0.49,0.37c0.42,0.76,0.8,1.55,1.2,2.33c-0.79,0.24-1.61,0.76-2.37,0.69
		c-5.99-0.54-11.97-1.22-17.96-1.81c-7.48-0.75-14.94-1.78-22.43-2.07c-4.72-0.19-9.49,0.7-14.24,1.19
		c-8.81,0.91-17.6,1.91-26.41,2.79c-0.75,0.07-1.57-0.53-2.36-0.82c0.34-0.65,0.52-1.49,1.03-1.91c3.09-2.53,6.24-4.97,9.39-7.43
		c4.94-3.86,9.89-7.72,14.85-11.56c1.24-0.96,1.58-2.17,1.48-3.68c-0.55-8.23-1.12-16.46-1.54-24.7
		c-0.51-9.79-0.89-19.58-1.31-29.38c-0.27-6.22-0.55-12.43-0.76-18.65c-0.22-6.58-0.4-13.17-0.54-19.75
		c-0.09-4.38-2.23-6.03-6.45-4.88c-11.46,3.12-22.92,6.22-34.38,9.35c-12.51,3.41-25.01,6.87-37.52,10.25
		c-7.76,2.09-15.55,4.08-23.33,6.11c-0.44,0.12-0.91,0.18-1.37,0.19c-2.74,0.06-4.12-1.65-3.85-4.42c0.35-3.59,2.66-5.76,5.33-7.64
		c9.74-6.87,19.53-13.69,29.3-20.52c6.42-4.48,12.84-8.95,19.25-13.44C65.62,136.7,65.92,136.18,66.17,135.88z"/>
</g>
</svg>
