<?xml version="1.0" encoding="utf-8"?>
<!-- Generator: Adobe Illustrator 26.0.2, SVG Export Plug-In . SVG Version: 6.00 Build 0)  -->
<svg version="1.1" id="Calque_1" xmlns="http://www.w3.org/2000/svg" xmlns:xlink="http://www.w3.org/1999/xlink" 
	 viewBox="0 0 549.12 541.64" style="enable-background:new 0 0 549.12 541.64;" xml:space="preserve">
<g>
	<path fill="red" d="M342.24,367.49c1.32,43.51,2.62,86.02,3.91,128.53c-0.32,0.14-0.64,0.28-0.96,0.42c-23.75-35.45-47.5-70.91-71.26-106.36
		c-0.37,0.04-0.74,0.07-1.11,0.11c-17.71,44.76-35.42,89.51-53.13,134.27c-0.31-0.04-0.62-0.08-0.94-0.12
		c-1.58-48.94-3.16-97.88-4.77-148.03c-43.94,26.32-87.07,52.17-130.2,78.01c-0.29-0.28-0.57-0.56-0.86-0.83
		c26.42-46.83,52.84-93.65,79.73-141.32c-47.62-10.85-94.65-21.57-141.68-32.28c-0.02-0.32-0.04-0.63-0.05-0.95
		c48.74-9.65,97.48-19.3,146.22-28.95c0.14-0.35,0.28-0.7,0.41-1.05c-39.88-36.49-79.77-72.99-119.65-109.48
		c0.2-0.33,0.4-0.65,0.6-0.98c50.04,16.66,100.07,33.32,151.1,50.31c-14.67-58.13-29.07-115.22-43.48-172.31
		c0.26-0.12,0.52-0.25,0.79-0.38c33.77,45.78,67.54,91.57,101.94,138.2c22.54-39.99,44.67-79.25,66.8-118.51
		c0.34,0.09,0.68,0.19,1.02,0.28c-3.88,47.46-7.76,94.92-11.64,142.37c0.33,0.27,0.67,0.53,1,0.8
		c30.53-21.44,61.07-42.87,91.6-64.31c0.28,0.22,0.56,0.44,0.85,0.66c-16.83,34.44-33.67,68.88-50.5,103.32
		c0.2,0.37,0.39,0.75,0.59,1.12c56.95-2.61,113.9-5.23,170.85-7.84c0.1,0.26,0.21,0.51,0.31,0.77
		c-50.81,28.17-101.63,56.34-153,84.82c29.96,38.7,59.56,76.94,89.17,115.18c-0.24,0.31-0.47,0.62-0.71,0.93
		C424.51,398.54,383.83,383.19,342.24,367.49z M296.48,210.29c-0.34-0.23-0.67-0.45-1.01-0.68c0.49-25.8,0.97-51.6,1.46-77.4
		c-0.21-0.03-0.41-0.05-0.62-0.08c-11.24,21.39-22.47,42.78-34.2,65.1c-17.63-22.6-34.62-44.37-51.61-66.15
		c-0.27,0.13-0.53,0.25-0.8,0.38c7.32,27.64,14.65,55.29,21.97,82.93c-0.32,0.28-0.64,0.56-0.95,0.83
		c-28.41-7.08-56.83-14.16-85.24-21.24c-0.15,0.36-0.31,0.72-0.46,1.08c23.12,19.83,46.23,39.67,69.35,59.5
		c-0.15,0.41-0.29,0.82-0.44,1.23c-28.79,6.9-57.57,13.79-86.36,20.69c0.01,0.3,0.02,0.6,0.03,0.9
		c26.53,6.14,53.06,12.29,80.38,18.61c-19.21,29.48-37.85,58.11-56.5,86.74c0.26,0.2,0.51,0.4,0.77,0.59
		c28.72-19.22,57.14-38.92,85.89-58.09c0.32,0.25,0.65,0.51,0.97,0.76c0.8,24.93,1.6,49.87,2.4,74.8c0.3,0.03,0.61,0.06,0.91,0.09
		c10.11-22.71,20.22-45.42,30.34-68.13c0.41,0,0.82,0,1.22,0c11.69,16.97,23.38,33.94,35.61,51.69c0-21.69,0-42.31,0-63.67
		c21.41,9.38,42.29,18.52,63.17,27.66c0.17-0.28,0.34-0.55,0.51-0.83c-3.17-4.77-6.33-9.55-9.5-14.31
		c-9.91-14.87-19.83-29.74-29.73-44.62c-2.49-3.75-2.46-3.77,1.38-5.7c0.56-0.28,1.12-0.55,1.69-0.81
		c26.01-12.22,52.02-24.43,78.04-36.64c1.39-0.65,2.79-1.29,4.19-1.94c-0.08-0.26-0.16-0.53-0.24-0.79
		c-32.11-0.81-64.23-1.63-97.26-2.46c8.77-19.99,17.14-39.1,25.52-58.21c-0.26-0.2-0.51-0.41-0.77-0.61
		C329.88,191.1,313.18,200.69,296.48,210.29z"/>
</g>
<g>
	<path fill="red" d="M288.7,301.11c-0.24,13.16-0.47,26.02-0.7,38.88c-0.1,0.04-0.2,0.08-0.29,0.11c-6.65-11.06-13.31-22.11-19.96-33.17
		c-0.11,0.01-0.23,0.01-0.34,0.02c-6,13.26-12.01,26.52-18.01,39.77c-0.09-0.02-0.19-0.03-0.28-0.05
		c0.24-14.81,0.48-29.61,0.73-44.78c-13.66,7.31-27.06,14.48-40.47,21.65c-0.08-0.09-0.16-0.18-0.25-0.26
		c8.67-13.76,17.33-27.51,26.15-41.52c-14.22-3.98-28.27-7.9-42.32-11.83c0-0.1,0-0.19,0-0.29c14.86-2.2,29.72-4.4,44.59-6.6
		c0.05-0.1,0.09-0.21,0.14-0.31c-11.51-11.61-23.02-23.21-34.53-34.82c0.07-0.1,0.13-0.19,0.2-0.29
		c14.87,5.77,29.74,11.53,44.9,17.41c-3.58-17.77-7.09-35.23-10.6-52.68c0.08-0.03,0.16-0.07,0.24-0.1
		c9.53,14.32,19.06,28.65,28.76,43.24c7.39-11.75,14.65-23.28,21.91-34.81c0.1,0.03,0.2,0.07,0.3,0.1
		c-1.87,14.28-3.74,28.55-5.6,42.83c0.1,0.08,0.19,0.17,0.29,0.25c9.54-6.03,19.07-12.05,28.61-18.08c0.08,0.07,0.16,0.14,0.25,0.21
		c-5.59,10.16-11.18,20.31-16.77,30.47c0.05,0.12,0.11,0.23,0.16,0.35c17.24,0.05,34.48,0.09,51.72,0.14
		c0.03,0.08,0.06,0.16,0.08,0.24c-15.76,7.76-31.52,15.53-47.45,23.37c8.48,12.13,16.86,24.11,25.24,36.1
		c-0.08,0.09-0.15,0.18-0.23,0.27C313.1,311.69,301.03,306.46,288.7,301.11z M277.19,252.95c-0.1-0.07-0.2-0.15-0.29-0.22
		c0.52-7.79,1.05-15.57,1.57-23.36c-0.06-0.01-0.12-0.02-0.19-0.03c-3.71,6.3-7.42,12.59-11.28,19.16
		c-4.99-7.08-9.81-13.91-14.62-20.74c-0.08,0.03-0.17,0.07-0.25,0.1c1.81,8.46,3.61,16.91,5.42,25.37c-0.1,0.08-0.2,0.16-0.3,0.24
		c-8.48-2.55-16.96-5.11-25.43-7.66c-0.05,0.11-0.1,0.21-0.16,0.32c6.69,6.33,13.38,12.66,20.07,18.99
		c-0.05,0.12-0.1,0.24-0.15,0.36c-8.8,1.66-17.59,3.32-26.39,4.98c0,0.09,0,0.18,0,0.27c7.92,2.24,15.85,4.49,24.01,6.8
		c-6.23,8.62-12.29,17-18.34,25.37c0.07,0.06,0.15,0.13,0.22,0.19c8.96-5.38,17.83-10.92,26.79-16.29c0.09,0.08,0.19,0.16,0.28,0.24
		c-0.12,7.54-0.25,15.09-0.37,22.63c0.09,0.01,0.18,0.03,0.27,0.04c3.39-6.71,6.77-13.42,10.16-20.13c0.12,0.01,0.25,0.01,0.37,0.02
		c3.28,5.3,6.56,10.6,10,16.13c0.32-6.55,0.62-12.78,0.93-19.23c6.33,3.15,12.5,6.21,18.67,9.28c0.06-0.08,0.11-0.16,0.17-0.24
		c-0.89-1.49-1.77-2.98-2.66-4.46c-2.77-4.64-5.55-9.27-8.33-13.91c-0.7-1.17-0.69-1.17,0.5-1.7c0.17-0.08,0.35-0.15,0.52-0.22
		c8.04-3.31,16.07-6.62,24.11-9.92c0.43-0.18,0.86-0.35,1.29-0.52c-0.02-0.08-0.04-0.16-0.06-0.24c-9.69-0.72-19.37-1.43-29.34-2.17
		c2.94-5.91,5.75-11.56,8.56-17.21c-0.07-0.07-0.15-0.13-0.22-0.2C287.56,247.65,282.37,250.3,277.19,252.95z"/>
</g>
</svg>
