<?xml version="1.0" encoding="utf-8"?>
<!-- Generator: Adobe Illustrator 26.2.1, SVG Export Plug-In . SVG Version: 6.00 Build 0)  -->
<svg version="1.1" id="Calque_1" xmlns="http://www.w3.org/2000/svg" xmlns:xlink="http://www.w3.org/1999/xlink" x="0px" y="0px"
	 viewBox="0 0 166 92" style="enable-background:new 0 0 166 92;" xml:space="preserve">
<style type="text/css">
	.st0{fill:#FFFFFF;}
</style>
<g>
	<g>
		<path class="st0" d="M40.81,30.68c-0.52-1.39-1.32-2.4-2.36-2.99c-1-0.56-2.26-0.85-3.74-0.85c-1.51,0-2.78,0.29-3.78,0.85
			c-1.04,0.59-1.84,1.59-2.39,2.98l-9.13,23.12L19,54.83h1.11h5.01h0.51l0.19-0.48l8.24-20.91c0.16-0.35,0.35-0.42,0.61-0.42
			c0.31,0,0.45,0.1,0.57,0.41l2.03,5.39h-3.52H33v0.76v4.51v0.76h0.76h5.79l3.59,9.5l0.18,0.49h0.52h5.05h1.1L49.6,53.8L40.81,30.68
			z"/>
		<polygon class="st0" points="52.75,27.31 51.99,27.31 51.99,28.06 51.99,54.07 51.99,54.83 52.75,54.83 57.29,54.83 58.05,54.83 
			58.05,54.07 58.05,28.06 58.05,27.31 57.29,27.31 		"/>
		<path class="st0" d="M87.16,53.69l-5.58-9.6c0.71-0.28,1.34-0.63,1.89-1.06c0.76-0.59,1.39-1.29,1.87-2.07
			c0.47-0.77,0.83-1.6,1.05-2.48c0.22-0.87,0.33-1.75,0.33-2.63c0-1.1-0.18-2.18-0.52-3.21c-0.36-1.05-0.92-1.98-1.67-2.77
			c-0.75-0.78-1.72-1.41-2.86-1.87c-1.14-0.46-2.5-0.69-4.06-0.69H63.5h-0.76v0.76v4.55v0.76h0.76h14.26c1.02,0,1.75,0.25,2.18,0.75
			c0.46,0.54,0.69,1.17,0.69,1.92c0,0.38-0.06,0.76-0.18,1.12c-0.11,0.35-0.27,0.64-0.49,0.9c-0.21,0.25-0.49,0.45-0.85,0.61
			c-0.36,0.16-0.82,0.24-1.35,0.24H67.62c-1.64,0-2.87,0.4-3.66,1.18c-0.79,0.79-1.18,2.03-1.18,3.69v10.29v0.76h0.76h4.55h0.76
			v-0.76v-9.3h6.25l5.72,9.69l0.22,0.37h0.43h5.05h1.31L87.16,53.69z"/>
	</g>
	<g>
		<path class="st0" d="M45.75,56.76c-3.01,0-5.37,0.88-7,2.62c-1.62,1.72-2.44,4.33-2.44,7.76c0,3.41,0.82,6.01,2.44,7.74
			c1.63,1.74,3.99,2.62,7,2.62h7.43h0.76v-0.76v-3.36v-0.76h-0.76h-7.43c-1.64,0-2.82-0.4-3.5-1.2c-0.71-0.83-1.07-2.27-1.07-4.28
			c0-2.02,0.36-3.47,1.08-4.3c0.69-0.8,1.86-1.2,3.49-1.2h7.43h0.76v-0.76v-3.36v-0.76h-0.76H45.75z"/>
		<path class="st0" d="M91.22,59.38c-0.4-1.07-1.02-1.85-1.83-2.31c-0.77-0.43-1.73-0.65-2.86-0.65c-1.15,0-2.12,0.22-2.89,0.65
			c-0.81,0.46-1.43,1.23-1.85,2.3l-6.75,17.08l-0.07,0.18l-0.17-0.29l-4.01-6.9c0.46-0.2,0.87-0.44,1.23-0.72
			c0.58-0.45,1.06-0.98,1.43-1.58c0.36-0.58,0.63-1.22,0.8-1.89c0.17-0.66,0.25-1.33,0.25-1.99c0-0.84-0.13-1.66-0.4-2.43
			c-0.27-0.81-0.7-1.52-1.28-2.12c-0.58-0.6-1.31-1.08-2.18-1.43c-0.87-0.35-1.9-0.52-3.07-0.52H57.14h-0.76v0.76v3.36v0.76h0.76
			h10.53c0.69,0,1.18,0.16,1.46,0.49c0.31,0.37,0.46,0.79,0.46,1.29c0,0.26-0.04,0.52-0.12,0.76c-0.07,0.23-0.18,0.43-0.33,0.6
			c-0.14,0.16-0.32,0.29-0.56,0.4c-0.24,0.11-0.55,0.16-0.92,0.16h-7.49c-1.27,0-2.22,0.31-2.84,0.93
			c-0.62,0.62-0.93,1.58-0.93,2.87v7.6v0.76h0.76h3.36h0.76v-0.76v-6.68l4.31,0l4.17,7.06l0.22,0.37h0.43h3.73h0.48h0.83h0.28h3.7
			h0.51l0.19-0.48l6.09-15.45c0.08-0.17,0.14-0.19,0.27-0.19c0.12,0,0.17,0.01,0.24,0.17L88.51,66h-1.5h-0.76h-0.38v3v0.76h0.76
			h3.21L92.57,77l0.18,0.49h0.52H97h1.1l-0.39-1.02L91.22,59.38z"/>
		<path class="st0" d="M115.43,66.71c-0.56-0.61-1.32-1.12-2.26-1.49c-0.92-0.37-2.1-0.55-3.5-0.55h-4.5
			c-0.48,0-0.87-0.05-1.15-0.14c-0.25-0.09-0.44-0.2-0.58-0.33c-0.13-0.13-0.22-0.27-0.27-0.43c-0.06-0.2-0.09-0.41-0.09-0.62
			c0-0.47,0.13-0.84,0.39-1.12c0.25-0.27,0.7-0.4,1.36-0.4h9.85h0.76v-0.76v-3.36v-0.76h-0.76h-9.74c-1.15,0-2.15,0.15-2.99,0.46
			c-0.86,0.31-1.59,0.76-2.15,1.33c-0.56,0.58-0.98,1.26-1.23,2.05c-0.24,0.75-0.36,1.57-0.36,2.44c0,0.73,0.1,1.47,0.3,2.19
			c0.21,0.77,0.59,1.48,1.13,2.09c0.54,0.62,1.29,1.12,2.21,1.49c0.9,0.36,2.06,0.54,3.44,0.54h4.47c0.5,0,0.91,0.05,1.22,0.16
			c0.28,0.1,0.5,0.22,0.65,0.36c0.14,0.13,0.23,0.28,0.29,0.46c0.07,0.22,0.11,0.44,0.11,0.66c0,0.5-0.14,0.9-0.43,1.2
			c-0.28,0.29-0.77,0.44-1.46,0.44H99.31h-0.76v0.76v3.36v0.76h0.76h10.71c1.19,0,2.22-0.16,3.07-0.47c0.87-0.32,1.6-0.78,2.17-1.36
			c0.57-0.58,1-1.28,1.26-2.07c0.25-0.76,0.38-1.59,0.38-2.49c0-0.75-0.1-1.5-0.3-2.24C116.39,68.05,115.99,67.33,115.43,66.71z"/>
		<polygon class="st0" points="136.44,56.76 133.05,56.76 132.3,56.76 132.3,57.51 132.3,64.59 123.98,64.59 123.98,57.51 
			123.98,56.76 123.23,56.76 119.87,56.76 119.11,56.76 119.11,57.51 119.11,76.73 119.11,77.49 119.87,77.49 123.23,77.49 
			123.98,77.49 123.98,76.73 123.98,69.46 132.3,69.46 132.3,76.73 132.3,77.49 133.05,77.49 136.44,77.49 137.19,77.49 
			137.19,76.73 137.19,57.51 137.19,56.76 		"/>
	</g>
	<g>
		<path class="st0" d="M115.11,33.65c8.27-5.72,15.98-12.17,23.32-19.03c-3.79,3.29-7.67,6.45-11.65,9.49
			c-10.1,7.51-26.67,19.23-39.4,19.38c-0.65-0.02-1.19,0.52-1.17,1.17c0.02,0.63,0.54,1.12,1.17,1.1c2.63-0.08,5.2-0.63,7.67-1.44
			C102.3,41.92,108.87,37.9,115.11,33.65z"/>
		<path class="st0" d="M134.64,32.06c-10.1,7.51-26.67,19.23-39.4,19.38c-0.65-0.02-1.19,0.52-1.17,1.17
			c0.02,0.63,0.54,1.12,1.17,1.1c2.63-0.08,5.2-0.63,7.67-1.44c7.24-2.4,13.81-6.42,20.06-10.67c8.27-5.72,15.98-12.17,23.32-19.03
			C142.51,25.86,138.63,29.03,134.64,32.06z"/>
	</g>
</g>
</svg>
