<?xml version="1.0" encoding="utf-8"?>
<!-- Generator: Adobe Illustrator 26.2.1, SVG Export Plug-In . SVG Version: 6.00 Build 0)  -->
<svg version="1.1" id="Calque_1" xmlns="http://www.w3.org/2000/svg" xmlns:xlink="http://www.w3.org/1999/xlink" x="0px" y="0px"
	 viewBox="0 0 221 117" style="enable-background:new 0 0 221 117;" xml:space="preserve">
<style type="text/css">
	.st0{display:none;}
	.st1{display:inline;}
	.st2{fill:#FFFFFF;}
	.st3{fill:#F7931D;}
</style>
<g class="st0">
	<g class="st1">
		<path class="st2" d="M71.8,46.7c-0.5-1.4-1.3-2.4-2.4-3c-1-0.6-2.3-0.8-3.7-0.8c-1.5,0-2.8,0.3-3.8,0.8c-1,0.6-1.8,1.6-2.4,3
			l-9.1,23.1l-0.4,1h1.1h5h0.5l0.2-0.5l8.2-20.9c0.2-0.3,0.3-0.4,0.6-0.4c0.3,0,0.4,0.1,0.6,0.4l2,5.4h-3.5H64v0.8v4.5v0.8h0.8h5.8
			l3.6,9.5l0.2,0.5h0.5h5.1H81l-0.4-1L71.8,46.7z"/>
		<polygon class="st2" points="83.8,43.3 83,43.3 83,44.1 83,70.1 83,70.8 83.8,70.8 88.3,70.8 89.1,70.8 89.1,70.1 89.1,44.1 
			89.1,43.3 88.3,43.3 		"/>
		<path class="st2" d="M118.2,69.7l-5.6-9.6c0.7-0.3,1.3-0.6,1.9-1.1c0.8-0.6,1.4-1.3,1.9-2.1c0.5-0.8,0.8-1.6,1.1-2.5
			c0.2-0.9,0.3-1.8,0.3-2.6c0-1.1-0.2-2.2-0.5-3.2c-0.4-1-0.9-2-1.7-2.8c-0.8-0.8-1.7-1.4-2.9-1.9s-2.5-0.7-4.1-0.7H94.5h-0.8v0.8
			v4.5v0.8h0.8h14.3c1,0,1.8,0.2,2.2,0.8c0.5,0.5,0.7,1.2,0.7,1.9c0,0.4-0.1,0.8-0.2,1.1c-0.1,0.3-0.3,0.6-0.5,0.9
			c-0.2,0.2-0.5,0.5-0.8,0.6s-0.8,0.2-1.3,0.2H98.6c-1.6,0-2.9,0.4-3.7,1.2c-0.8,0.8-1.2,2-1.2,3.7v10.3v0.8h0.8h4.6h0.8v-0.8v-9.3
			h6.2l5.7,9.7l0.2,0.4h0.4h5.1h1.3L118.2,69.7z"/>
	</g>
	<g class="st1">
		<path class="st2" d="M76.8,72.8c-3,0-5.4,0.9-7,2.6c-1.6,1.7-2.4,4.3-2.4,7.8c0,3.4,0.8,6,2.4,7.7c1.6,1.7,4,2.6,7,2.6h7.4h0.8
			v-0.8v-3.4v-0.8h-0.8h-7.4c-1.6,0-2.8-0.4-3.5-1.2c-0.7-0.8-1.1-2.3-1.1-4.3c0-2,0.4-3.5,1.1-4.3c0.7-0.8,1.9-1.2,3.5-1.2h7.4h0.8
			v-0.8v-3.4v-0.8h-0.8H76.8z"/>
		<path class="st2" d="M122.2,75.4c-0.4-1.1-1-1.8-1.8-2.3c-0.8-0.4-1.7-0.7-2.9-0.7c-1.2,0-2.1,0.2-2.9,0.7
			c-0.8,0.5-1.4,1.2-1.8,2.3L106,92.5l-0.1,0.2l-0.2-0.3l-4-6.9c0.5-0.2,0.9-0.4,1.2-0.7c0.6-0.4,1.1-1,1.4-1.6
			c0.4-0.6,0.6-1.2,0.8-1.9c0.2-0.7,0.2-1.3,0.2-2c0-0.8-0.1-1.7-0.4-2.4c-0.3-0.8-0.7-1.5-1.3-2.1c-0.6-0.6-1.3-1.1-2.2-1.4
			s-1.9-0.5-3.1-0.5H88.1h-0.8v0.8v3.4v0.8h0.8h10.5c0.7,0,1.2,0.2,1.5,0.5c0.3,0.4,0.5,0.8,0.5,1.3c0,0.3,0,0.5-0.1,0.8
			c-0.1,0.2-0.2,0.4-0.3,0.6c-0.1,0.2-0.3,0.3-0.6,0.4s-0.6,0.2-0.9,0.2h-7.5c-1.3,0-2.2,0.3-2.8,0.9c-0.6,0.6-0.9,1.6-0.9,2.9v7.6
			v0.8h0.8h3.4h0.8v-0.8v-6.7h4.3l4.2,7.1l0.2,0.4h0.4h3.7h0.5h0.8h0.3h3.7h0.5l0.2-0.5l6.1-15.4c0.1-0.2,0.1-0.2,0.3-0.2
			c0.1,0,0.2,0,0.2,0.2l1.8,4.4H118h-0.8h-0.4v3v0.8h0.8h3.2l2.7,7.2l0.2,0.5h0.5h3.7h1.1l-0.4-1L122.2,75.4z"/>
		<path class="st2" d="M146.4,82.7c-0.6-0.6-1.3-1.1-2.3-1.5c-0.9-0.4-2.1-0.6-3.5-0.6h-4.5c-0.5,0-0.9-0.1-1.1-0.1
			c-0.2-0.1-0.4-0.2-0.6-0.3c-0.1-0.1-0.2-0.3-0.3-0.4c-0.1-0.2-0.1-0.4-0.1-0.6c0-0.5,0.1-0.8,0.4-1.1c0.2-0.3,0.7-0.4,1.4-0.4h9.9
			h0.8v-0.8v-3.4v-0.8h-0.8h-9.7c-1.1,0-2.1,0.2-3,0.5c-0.9,0.3-1.6,0.8-2.1,1.3c-0.6,0.6-1,1.3-1.2,2.1c-0.2,0.8-0.4,1.6-0.4,2.4
			c0,0.7,0.1,1.5,0.3,2.2c0.2,0.8,0.6,1.5,1.1,2.1c0.5,0.6,1.3,1.1,2.2,1.5c0.9,0.4,2.1,0.5,3.4,0.5h4.5c0.5,0,0.9,0.1,1.2,0.2
			c0.3,0.1,0.5,0.2,0.6,0.4c0.1,0.1,0.2,0.3,0.3,0.5c0.1,0.2,0.1,0.4,0.1,0.7c0,0.5-0.1,0.9-0.4,1.2c-0.3,0.3-0.8,0.4-1.5,0.4h-10.8
			h-0.8v0.8v3.4v0.8h0.8H141c1.2,0,2.2-0.2,3.1-0.5c0.9-0.3,1.6-0.8,2.2-1.4c0.6-0.6,1-1.3,1.3-2.1c0.2-0.8,0.4-1.6,0.4-2.5
			c0-0.8-0.1-1.5-0.3-2.2C147.4,84.1,147,83.3,146.4,82.7z"/>
		<polygon class="st2" points="167.4,72.8 164.1,72.8 163.3,72.8 163.3,73.5 163.3,80.6 155,80.6 155,73.5 155,72.8 154.2,72.8 
			150.9,72.8 150.1,72.8 150.1,73.5 150.1,92.7 150.1,93.5 150.9,93.5 154.2,93.5 155,93.5 155,92.7 155,85.5 163.3,85.5 
			163.3,92.7 163.3,93.5 164.1,93.5 167.4,93.5 168.2,93.5 168.2,92.7 168.2,73.5 168.2,72.8 		"/>
	</g>
	<g class="st1">
		<path class="st2" d="M146.1,49.7c8.3-5.7,16-12.2,23.3-19c-3.8,3.3-7.7,6.4-11.6,9.5c-10.1,7.5-26.7,19.2-39.4,19.4
			c-0.7,0-1.2,0.5-1.2,1.2c0,0.6,0.5,1.1,1.2,1.1c2.6-0.1,5.2-0.6,7.7-1.4C133.3,57.9,139.9,53.9,146.1,49.7z"/>
		<path class="st2" d="M165.6,48.1c-10.1,7.5-26.7,19.2-39.4,19.4c-0.7,0-1.2,0.5-1.2,1.2c0,0.6,0.5,1.1,1.2,1.1
			c2.6-0.1,5.2-0.6,7.7-1.4c7.2-2.4,13.8-6.4,20.1-10.7c8.3-5.7,16-12.2,23.3-19C173.5,41.9,169.6,45,165.6,48.1z"/>
	</g>
</g>
<g>
	<g>
		<path class="st3" d="M42.9,32.5c-0.8-2.3-2.2-3.9-3.8-4.9c-1.6-0.9-3.7-1.4-6.1-1.4c-2.5,0-4.5,0.5-6.2,1.4c-1.7,1-3,2.6-3.9,4.9
			L7.9,70.2l-0.7,1.7H9h8.2h0.8l0.3-0.8L31.8,37c0.2-0.6,0.6-0.7,1-0.7c0.5,0,0.7,0.2,0.9,0.7l3.3,8.8h-5.8h-1.2V47v7.4v1.2h1.2h9.5
			l5.9,15.5l0.3,0.8h0.8h8.2h1.8l-0.6-1.7L42.9,32.5z"/>
		<polygon class="st3" points="62.4,27 61.1,27 61.1,28.2 61.1,70.7 61.1,71.9 62.4,71.9 69.8,71.9 71,71.9 71,70.7 71,28.2 71,27 
			69.8,27 		"/>
		<path class="st3" d="M118.6,70.1l-9.1-15.7c1.2-0.5,2.2-1,3.1-1.7c1.2-1,2.3-2.1,3.1-3.4c0.8-1.2,1.3-2.6,1.7-4.1
			c0.4-1.4,0.5-2.9,0.5-4.3c0-1.8-0.3-3.6-0.8-5.2c-0.6-1.7-1.5-3.2-2.7-4.5c-1.2-1.3-2.8-2.3-4.7-3.1c-1.9-0.8-4.1-1.1-6.6-1.1h-23
			h-1.2v1.2v7.4v1.2h1.2h23.3c1.7,0,2.9,0.4,3.6,1.2c0.8,0.9,1.1,1.9,1.1,3.1c0,0.6-0.1,1.2-0.3,1.8c-0.2,0.6-0.4,1-0.8,1.5
			c-0.3,0.4-0.8,0.7-1.4,1c-0.6,0.3-1.3,0.4-2.2,0.4H86.7c-2.7,0-4.7,0.7-6,1.9c-1.3,1.3-1.9,3.3-1.9,6v16.8v1.2H80h7.4h1.2v-1.2
			V55.5h10.2l9.3,15.8l0.4,0.6h0.7h8.2h2.1L118.6,70.1z"/>
	</g>
	<g>
		<path class="st3" d="M51,75.1c-4.9,0-8.8,1.4-11.4,4.3c-2.7,2.8-4,7.1-4,12.7c0,5.6,1.3,9.8,4,12.6c2.7,2.8,6.5,4.3,11.4,4.3h12.1
			h1.2v-1.2v-5.5V101h-1.2H51c-2.7,0-4.6-0.7-5.7-2c-1.2-1.4-1.8-3.7-1.8-7c0-3.3,0.6-5.7,1.8-7c1.1-1.3,3-2,5.7-2h12.1h1.2v-1.2
			v-5.5v-1.2h-1.2H51z"/>
		<path class="st3" d="M125.2,79.3c-0.7-1.8-1.7-3-3-3.8c-1.2-0.7-2.8-1.1-4.7-1.1c-1.9,0-3.5,0.4-4.7,1.1c-1.3,0.7-2.3,2-3,3.8
			l-11,27.9l-0.1,0.3l-0.3-0.5l-6.6-11.3c0.8-0.3,1.4-0.7,2-1.2c0.9-0.7,1.7-1.6,2.3-2.6c0.6-1,1-2,1.3-3.1c0.3-1.1,0.4-2.2,0.4-3.3
			c0-1.4-0.2-2.7-0.7-4c-0.4-1.3-1.2-2.5-2.1-3.5c-0.9-1-2.1-1.8-3.6-2.3c-1.4-0.6-3.1-0.9-5-0.9h-17h-1.2v1.2v5.5V83h1.2h17.2
			c1.1,0,1.9,0.3,2.4,0.8c0.5,0.6,0.8,1.3,0.8,2.1c0,0.4-0.1,0.8-0.2,1.2c-0.1,0.4-0.3,0.7-0.5,1c-0.2,0.3-0.5,0.5-0.9,0.7
			c-0.4,0.2-0.9,0.3-1.5,0.3H74.5c-2.1,0-3.6,0.5-4.6,1.5s-1.5,2.6-1.5,4.7v12.4v1.2h1.2h5.5h1.2v-1.2V96.8h7l6.8,11.5l0.4,0.6h0.7
			h6.1h0.8h1.3h0.5h6.1h0.8l0.3-0.8l9.9-25.2c0.1-0.3,0.2-0.3,0.4-0.3c0.2,0,0.3,0,0.4,0.3l2.9,7.3h-2.4h-1.2h-0.6v4.9v1.2h1.2h5.2
			l4.5,11.8l0.3,0.8h0.8h6.1h1.8l-0.6-1.7L125.2,79.3z"/>
		<path class="st3" d="M164.8,91.3c-0.9-1-2.2-1.8-3.7-2.4c-1.5-0.6-3.4-0.9-5.7-0.9H148c-0.8,0-1.4-0.1-1.9-0.2
			c-0.4-0.1-0.7-0.3-0.9-0.5s-0.4-0.4-0.4-0.7c-0.1-0.3-0.1-0.7-0.1-1c0-0.8,0.2-1.4,0.6-1.8c0.4-0.4,1.1-0.7,2.2-0.7h16.1h1.2v-1.2
			v-5.5v-1.2h-1.2h-15.9c-1.9,0-3.5,0.2-4.9,0.8c-1.4,0.5-2.6,1.2-3.5,2.2s-1.6,2.1-2,3.3c-0.4,1.2-0.6,2.6-0.6,4
			c0,1.2,0.2,2.4,0.5,3.6c0.3,1.3,1,2.4,1.8,3.4c0.9,1,2.1,1.8,3.6,2.4c1.5,0.6,3.4,0.9,5.6,0.9h7.3c0.8,0,1.5,0.1,2,0.3
			c0.5,0.2,0.8,0.3,1.1,0.6c0.2,0.2,0.4,0.5,0.5,0.7c0.1,0.4,0.2,0.7,0.2,1.1c0,0.8-0.2,1.5-0.7,2c-0.4,0.5-1.3,0.7-2.4,0.7h-17.7
			h-1.2v1.2v5.5v1.2h1.2h17.5c1.9,0,3.6-0.3,5-0.8c1.4-0.5,2.6-1.3,3.6-2.2c0.9-0.9,1.6-2.1,2.1-3.4c0.4-1.2,0.6-2.6,0.6-4.1
			c0-1.2-0.2-2.4-0.5-3.7C166.3,93.5,165.7,92.3,164.8,91.3z"/>
		<polygon class="st3" points="199.1,75.1 193.6,75.1 192.3,75.1 192.3,76.3 192.3,87.9 178.8,87.9 178.8,76.3 178.8,75.1 
			177.5,75.1 172,75.1 170.8,75.1 170.8,76.3 170.8,107.7 170.8,108.9 172,108.9 177.5,108.9 178.8,108.9 178.8,107.7 178.8,95.8 
			192.3,95.8 192.3,107.7 192.3,108.9 193.6,108.9 199.1,108.9 200.3,108.9 200.3,107.7 200.3,76.3 200.3,75.1 		"/>
	</g>
	<g>
		<path class="st3" d="M164.3,37.3c13.5-9.3,26.1-19.9,38.1-31.1c-6.2,5.4-12.5,10.5-19,15.5C166.8,34,139.8,53.1,119,53.4
			c-1.1,0-1.9,0.8-1.9,1.9c0,1,0.9,1.8,1.9,1.8c4.3-0.1,8.5-1,12.5-2.3C143.3,50.8,154.1,44.3,164.3,37.3z"/>
		<path class="st3" d="M196.2,34.7c-16.5,12.3-43.6,31.4-64.4,31.7c-1.1,0-1.9,0.8-1.9,1.9c0,1,0.9,1.8,1.9,1.8
			c4.3-0.1,8.5-1,12.5-2.3c11.8-3.9,22.6-10.5,32.8-17.4c13.5-9.3,26.1-19.9,38.1-31.1C209,24.6,202.7,29.8,196.2,34.7z"/>
	</g>
</g>
</svg>
