<?xml version="1.0" encoding="utf-8"?>
<!-- Generator: Adobe Illustrator 26.2.1, SVG Export Plug-In . SVG Version: 6.00 Build 0)  -->
<svg version="1.1" id="Calque_1" xmlns="http://www.w3.org/2000/svg" xmlns:xlink="http://www.w3.org/1999/xlink" x="0px" y="0px"
	 viewBox="0 0 221 117" style="enable-background:new 0 0 221 117;" xml:space="preserve">
<style type="text/css">
	.st0{display:none;}
	.st1{display:inline;}
	.st2{fill:#FFFFFF;}
	.st3{fill:#595959;}
</style>
<g class="st0">
	<g class="st1">
		<path class="st2" d="M71.81,46.68c-0.52-1.39-1.32-2.4-2.36-2.99c-1-0.56-2.26-0.85-3.74-0.85c-1.51,0-2.78,0.29-3.78,0.85
			c-1.04,0.59-1.84,1.59-2.39,2.98l-9.13,23.12L50,70.83h1.11h5.01h0.51l0.19-0.48l8.24-20.91c0.16-0.35,0.35-0.42,0.61-0.42
			c0.31,0,0.45,0.1,0.57,0.41l2.03,5.39h-3.52H64v0.76v4.51v0.76h0.76h5.79l3.59,9.5l0.18,0.49h0.52h5.05h1.1L80.6,69.8L71.81,46.68
			z"/>
		<polygon class="st2" points="83.75,43.31 82.99,43.31 82.99,44.06 82.99,70.07 82.99,70.83 83.75,70.83 88.29,70.83 89.05,70.83 
			89.05,70.07 89.05,44.06 89.05,43.31 88.29,43.31 		"/>
		<path class="st2" d="M118.16,69.69l-5.58-9.6c0.71-0.28,1.34-0.63,1.89-1.06c0.76-0.59,1.39-1.29,1.87-2.07
			c0.47-0.77,0.83-1.6,1.05-2.48c0.22-0.87,0.33-1.75,0.33-2.63c0-1.1-0.18-2.18-0.52-3.21c-0.36-1.05-0.92-1.98-1.67-2.77
			c-0.75-0.78-1.72-1.41-2.86-1.87c-1.14-0.46-2.5-0.69-4.06-0.69H94.5h-0.76v0.76v4.55v0.76h0.76h14.26c1.02,0,1.75,0.25,2.18,0.75
			c0.46,0.54,0.69,1.17,0.69,1.92c0,0.38-0.06,0.76-0.18,1.12c-0.11,0.35-0.27,0.64-0.49,0.9c-0.21,0.25-0.49,0.45-0.85,0.61
			c-0.36,0.16-0.82,0.24-1.35,0.24H98.62c-1.64,0-2.87,0.4-3.66,1.18c-0.79,0.79-1.18,2.03-1.18,3.69v10.29v0.76h0.76h4.55h0.76
			v-0.76v-9.3h6.25l5.72,9.69l0.22,0.37h0.43h5.05h1.31L118.16,69.69z"/>
	</g>
	<g class="st1">
		<path class="st2" d="M76.75,72.76c-3.01,0-5.37,0.88-7,2.62c-1.62,1.72-2.44,4.33-2.44,7.76c0,3.41,0.82,6.01,2.44,7.74
			c1.63,1.74,3.99,2.62,7,2.62h7.43h0.76v-0.76v-3.36v-0.76h-0.76h-7.43c-1.64,0-2.82-0.4-3.5-1.2c-0.71-0.83-1.07-2.27-1.07-4.28
			c0-2.02,0.36-3.47,1.08-4.3c0.69-0.8,1.86-1.2,3.49-1.2h7.43h0.76v-0.76v-3.36v-0.76h-0.76H76.75z"/>
		<path class="st2" d="M122.22,75.38c-0.4-1.07-1.02-1.85-1.83-2.31c-0.77-0.43-1.73-0.65-2.86-0.65c-1.15,0-2.12,0.22-2.89,0.65
			c-0.81,0.46-1.43,1.23-1.85,2.3l-6.75,17.08l-0.07,0.18l-0.17-0.29l-4.01-6.9c0.46-0.2,0.87-0.44,1.23-0.72
			c0.58-0.45,1.06-0.98,1.43-1.58c0.36-0.58,0.63-1.22,0.8-1.89c0.17-0.66,0.25-1.33,0.25-1.99c0-0.84-0.13-1.66-0.4-2.43
			c-0.27-0.81-0.7-1.52-1.28-2.12c-0.58-0.6-1.31-1.08-2.18-1.43c-0.87-0.35-1.9-0.52-3.07-0.52H88.14h-0.76v0.76v3.36v0.76h0.76
			h10.53c0.69,0,1.18,0.16,1.46,0.49c0.31,0.37,0.46,0.79,0.46,1.29c0,0.26-0.04,0.52-0.12,0.76c-0.07,0.23-0.18,0.43-0.33,0.6
			c-0.14,0.16-0.32,0.29-0.56,0.4c-0.24,0.11-0.55,0.16-0.92,0.16h-7.49c-1.27,0-2.22,0.31-2.84,0.93
			c-0.62,0.62-0.93,1.58-0.93,2.87v7.6v0.76h0.76h3.36h0.76v-0.76v-6.68l4.31,0l4.17,7.06l0.22,0.37h0.43h3.73h0.48h0.83h0.28h3.7
			h0.51l0.19-0.48l6.09-15.45c0.08-0.17,0.14-0.19,0.27-0.19c0.12,0,0.17,0.01,0.24,0.17l1.77,4.45h-1.5h-0.76h-0.38v3v0.76h0.76
			h3.21l2.73,7.24l0.18,0.49h0.52H128h1.1l-0.39-1.02L122.22,75.38z"/>
		<path class="st2" d="M146.43,82.71c-0.56-0.61-1.32-1.12-2.26-1.49c-0.92-0.37-2.1-0.55-3.5-0.55h-4.5
			c-0.48,0-0.87-0.05-1.15-0.14c-0.25-0.09-0.44-0.2-0.58-0.33c-0.13-0.13-0.22-0.27-0.27-0.43c-0.06-0.2-0.09-0.41-0.09-0.62
			c0-0.47,0.13-0.84,0.39-1.12c0.25-0.27,0.7-0.4,1.36-0.4h9.85h0.76v-0.76v-3.36v-0.76h-0.76h-9.74c-1.15,0-2.15,0.15-2.99,0.46
			c-0.86,0.31-1.59,0.76-2.15,1.33c-0.56,0.58-0.98,1.26-1.23,2.05c-0.24,0.75-0.36,1.57-0.36,2.44c0,0.73,0.1,1.47,0.3,2.19
			c0.21,0.77,0.59,1.48,1.13,2.09c0.54,0.62,1.29,1.12,2.21,1.49c0.9,0.36,2.06,0.54,3.44,0.54h4.47c0.5,0,0.91,0.05,1.22,0.16
			c0.28,0.1,0.5,0.22,0.65,0.36c0.14,0.13,0.23,0.28,0.29,0.46c0.07,0.22,0.11,0.44,0.11,0.66c0,0.5-0.14,0.9-0.43,1.2
			c-0.28,0.29-0.77,0.44-1.46,0.44h-10.82h-0.76v0.76v3.36v0.76h0.76h10.71c1.19,0,2.22-0.16,3.07-0.47
			c0.87-0.32,1.6-0.78,2.17-1.36c0.57-0.58,1-1.28,1.26-2.07c0.25-0.76,0.38-1.59,0.38-2.49c0-0.75-0.1-1.5-0.3-2.24
			C147.39,84.05,146.99,83.33,146.43,82.71z"/>
		<polygon class="st2" points="167.44,72.76 164.05,72.76 163.3,72.76 163.3,73.51 163.3,80.59 154.98,80.59 154.98,73.51 
			154.98,72.76 154.23,72.76 150.87,72.76 150.11,72.76 150.11,73.51 150.11,92.73 150.11,93.49 150.87,93.49 154.23,93.49 
			154.98,93.49 154.98,92.73 154.98,85.46 163.3,85.46 163.3,92.73 163.3,93.49 164.05,93.49 167.44,93.49 168.19,93.49 
			168.19,92.73 168.19,73.51 168.19,72.76 		"/>
	</g>
	<g class="st1">
		<path class="st2" d="M146.11,49.65c8.27-5.72,15.98-12.17,23.32-19.03c-3.79,3.29-7.67,6.45-11.65,9.49
			c-10.1,7.51-26.67,19.23-39.4,19.38c-0.65-0.02-1.19,0.52-1.17,1.17c0.02,0.63,0.54,1.12,1.17,1.1c2.63-0.08,5.2-0.63,7.67-1.44
			C133.3,57.92,139.87,53.9,146.11,49.65z"/>
		<path class="st2" d="M165.64,48.06c-10.1,7.51-26.67,19.23-39.4,19.38c-0.65-0.02-1.19,0.52-1.17,1.17
			c0.02,0.63,0.54,1.12,1.17,1.1c2.63-0.08,5.2-0.63,7.67-1.44c7.24-2.4,13.81-6.42,20.06-10.67c8.27-5.72,15.98-12.17,23.32-19.03
			C173.51,41.86,169.63,45.03,165.64,48.06z"/>
	</g>
</g>
<g>
	<g>
		<path class="st3" d="M42.87,32.47c-0.85-2.28-2.15-3.92-3.85-4.89c-1.63-0.92-3.69-1.39-6.12-1.39c-2.47,0-4.55,0.47-6.18,1.39
			c-1.69,0.96-3.01,2.6-3.91,4.87L7.9,70.22l-0.67,1.69h1.81h8.18h0.84l0.31-0.78l13.46-34.16c0.25-0.57,0.57-0.69,1-0.69
			c0.5,0,0.73,0.17,0.93,0.66l3.32,8.8h-5.75h-1.23v1.23v7.38v1.23h1.23h9.47l5.86,15.52l0.3,0.8h0.85h8.25h1.79l-0.64-1.67
			L42.87,32.47z"/>
		<polygon class="st3" points="62.37,26.95 61.14,26.95 61.14,28.18 61.14,70.68 61.14,71.91 62.37,71.91 69.8,71.91 71.03,71.91 
			71.03,70.68 71.03,28.18 71.03,26.95 69.8,26.95 		"/>
		<path class="st3" d="M118.58,70.06l-9.12-15.69c1.16-0.46,2.2-1.04,3.09-1.73c1.24-0.97,2.27-2.1,3.06-3.38
			c0.78-1.25,1.35-2.62,1.72-4.06c0.36-1.42,0.54-2.86,0.54-4.3c0-1.8-0.29-3.57-0.85-5.24c-0.58-1.72-1.5-3.24-2.74-4.52
			c-1.23-1.28-2.8-2.3-4.68-3.06c-1.86-0.75-4.09-1.13-6.63-1.13H79.93H78.7v1.23v7.43v1.23h1.23h23.29c1.67,0,2.87,0.41,3.56,1.23
			c0.76,0.89,1.12,1.92,1.12,3.14c0,0.62-0.1,1.23-0.29,1.82c-0.18,0.56-0.45,1.05-0.81,1.47c-0.34,0.41-0.8,0.73-1.38,0.99
			c-0.59,0.26-1.33,0.4-2.21,0.4H86.67c-2.68,0-4.69,0.65-5.97,1.94c-1.28,1.28-1.94,3.31-1.94,6.03v16.81v1.23H80h7.43h1.23v-1.23
			v-15.2h10.21l9.34,15.82l0.36,0.61h0.7h8.25h2.14L118.58,70.06z"/>
	</g>
	<g>
		<path class="st3" d="M50.95,75.07c-4.92,0-8.77,1.44-11.43,4.27c-2.65,2.81-3.99,7.08-3.99,12.68c0,5.57,1.34,9.82,3.99,12.64
			c2.66,2.84,6.51,4.27,11.43,4.27h12.14h1.23v-1.23v-5.49v-1.23h-1.23H50.95c-2.68,0-4.6-0.66-5.71-1.96
			c-1.16-1.36-1.75-3.71-1.75-6.99c0-3.31,0.6-5.67,1.77-7.03c1.13-1.31,3.04-1.97,5.69-1.97h12.14h1.23v-1.23V76.3v-1.23h-1.23
			H50.95z"/>
		<path class="st3" d="M125.22,79.35c-0.66-1.76-1.66-3.03-2.99-3.78c-1.25-0.71-2.83-1.07-4.68-1.07c-1.88,0-3.47,0.36-4.72,1.07
			c-1.32,0.74-2.34,2.01-3.03,3.76l-11.02,27.91l-0.12,0.3l-0.27-0.47L91.83,95.8c0.75-0.32,1.42-0.72,2.01-1.18
			c0.95-0.74,1.74-1.61,2.34-2.58c0.59-0.96,1.03-1.99,1.31-3.09c0.27-1.07,0.41-2.17,0.41-3.26c0-1.37-0.22-2.71-0.65-3.98
			c-0.45-1.32-1.15-2.48-2.09-3.46c-0.94-0.98-2.14-1.76-3.57-2.34c-1.41-0.57-3.1-0.86-5.02-0.86H69.55h-1.23v1.23v5.49v1.23h1.23
			h17.21c1.13,0,1.94,0.27,2.39,0.8c0.51,0.6,0.75,1.29,0.75,2.11c0,0.43-0.07,0.85-0.2,1.25c-0.12,0.38-0.3,0.7-0.54,0.98
			c-0.22,0.26-0.52,0.47-0.91,0.65c-0.4,0.18-0.9,0.27-1.5,0.27H74.53c-2.07,0-3.63,0.51-4.64,1.52s-1.52,2.59-1.52,4.69v12.42v1.23
			h1.23h5.49h1.23v-1.23V96.79l7.04,0l6.81,11.53l0.36,0.61h0.7h6.09h0.79h1.35h0.46h6.05h0.84l0.31-0.78l9.95-25.24
			c0.13-0.28,0.23-0.31,0.44-0.31c0.2,0,0.28,0.01,0.39,0.29l2.9,7.28h-2.45h-1.23h-0.62v4.91v1.23h1.23h5.24l4.46,11.83l0.3,0.8
			h0.85h6.09h1.79l-0.64-1.67L125.22,79.35z"/>
		<path class="st3" d="M164.78,91.33c-0.91-1-2.16-1.82-3.69-2.43c-1.51-0.6-3.43-0.9-5.71-0.9h-7.35c-0.79,0-1.42-0.08-1.88-0.24
			c-0.41-0.14-0.73-0.32-0.95-0.54c-0.22-0.22-0.36-0.45-0.44-0.7c-0.1-0.33-0.15-0.67-0.15-1.01c0-0.77,0.21-1.37,0.64-1.83
			c0.41-0.43,1.15-0.65,2.21-0.65h16.09h1.23v-1.23V76.3v-1.23h-1.23h-15.91c-1.87,0-3.52,0.25-4.89,0.75
			c-1.41,0.51-2.59,1.24-3.51,2.18c-0.92,0.94-1.6,2.07-2.01,3.34c-0.39,1.22-0.59,2.56-0.59,3.99c0,1.19,0.16,2.4,0.49,3.58
			c0.34,1.26,0.96,2.41,1.84,3.42c0.89,1.01,2.1,1.83,3.61,2.43c1.47,0.58,3.36,0.88,5.62,0.88h7.3c0.82,0,1.49,0.09,2,0.26
			c0.46,0.16,0.82,0.35,1.06,0.58c0.22,0.21,0.38,0.46,0.47,0.74c0.11,0.36,0.17,0.72,0.17,1.09c0,0.83-0.23,1.47-0.7,1.96
			c-0.45,0.47-1.26,0.71-2.39,0.71h-17.68h-1.23v1.23v5.49v1.23h1.23h17.49c1.94,0,3.62-0.26,5.01-0.77
			c1.42-0.53,2.61-1.27,3.55-2.22c0.93-0.95,1.63-2.09,2.06-3.38c0.41-1.24,0.62-2.6,0.62-4.07c0-1.22-0.16-2.45-0.48-3.66
			C166.34,93.52,165.7,92.34,164.78,91.33z"/>
		<polygon class="st3" points="199.1,75.07 193.56,75.07 192.33,75.07 192.33,76.3 192.33,87.86 178.75,87.86 178.75,76.3 
			178.75,75.07 177.52,75.07 172.03,75.07 170.79,75.07 170.79,76.3 170.79,107.7 170.79,108.93 172.03,108.93 177.52,108.93 
			178.75,108.93 178.75,107.7 178.75,95.81 192.33,95.81 192.33,107.7 192.33,108.93 193.56,108.93 199.1,108.93 200.33,108.93 
			200.33,107.7 200.33,76.3 200.33,75.07 		"/>
	</g>
	<g>
		<path class="st3" d="M164.26,37.31c13.5-9.34,26.11-19.89,38.1-31.08c-6.19,5.37-12.53,10.54-19.04,15.5
			C166.82,34,139.75,53.14,118.96,53.4c-1.06-0.03-1.95,0.85-1.91,1.91c0.03,1.02,0.89,1.82,1.91,1.79
			c4.3-0.13,8.49-1.03,12.53-2.35C143.33,50.83,154.06,44.26,164.26,37.31z"/>
		<path class="st3" d="M196.17,34.72c-16.5,12.27-43.56,31.42-64.36,31.67c-1.06-0.03-1.95,0.85-1.91,1.91
			c0.03,1.02,0.89,1.82,1.91,1.79c4.3-0.13,8.49-1.03,12.53-2.35c11.83-3.92,22.57-10.49,32.77-17.43
			c13.5-9.34,26.11-19.89,38.1-31.08C209.02,24.59,202.68,29.76,196.17,34.72z"/>
	</g>
</g>
</svg>
